<svg width="65" height="65" viewBox="0 0 65 65" fill="none" xmlns="http://www.w3.org/2000/svg">
<circle cx="32.5" cy="32.5" r="32.5" fill="#39AC6E"/>
<path d="M20.9719 41.7979L25.4169 40.3883L26.2175 40.7583C28.0703 41.6129 30.1878 42.0682 32.5 42.0682C40.1475 42.0682 45.625 36.8745 45.625 30.633C45.625 24.3686 40.1869 19.1978 32.5 19.1978C24.8131 19.1978 19.375 24.3686 19.375 30.633C19.3879 33.0303 20.2184 35.3589 21.7419 37.2696L22.4813 38.2052L20.9719 41.7958V41.7979ZM19.4253 44.48C19.2274 44.543 19.0146 44.5509 18.812 44.5027C18.6095 44.4545 18.4258 44.3522 18.2825 44.2079C18.1392 44.0636 18.0423 43.8833 18.0033 43.6884C17.9643 43.4934 17.9849 43.292 18.0625 43.1078L19.9941 38.5191C18.1854 36.2483 17.2006 33.4811 17.1875 30.633C17.1875 23.7428 23.0544 17.1187 32.5 17.1187C41.9456 17.1187 47.8125 23.7428 47.8125 30.633C47.8125 37.5232 41.8844 44.1473 32.5 44.1473C29.7766 44.1473 27.3441 43.5901 25.2638 42.6296L19.4231 44.48H19.4253Z" fill="white"/>
<path d="M37.1485 30.5307H32.8885V34.8507H31.1885V30.5307H26.9485V28.9907H31.1885V24.6507H32.8885V28.9907H37.1485V30.5307Z" fill="white"/>
</svg>
