<svg width="24" height="27" viewBox="0 0 24 27" fill="none" xmlns="http://www.w3.org/2000/svg">
<path d="M4.095 19.7512L7.143 18.7496L7.692 19.0125C8.9625 19.6197 10.4145 19.9432 12 19.9432C17.244 19.9432 21 16.253 21 11.8182C21 7.36719 17.271 3.69322 12 3.69322C6.729 3.69322 3 7.36719 3 11.8182C3.00886 13.5215 3.57835 15.1761 4.623 16.5337L5.13 17.1984L4.095 19.7497V19.7512ZM3.0345 21.6569C2.89876 21.7016 2.75284 21.7072 2.61397 21.673C2.47511 21.6387 2.3491 21.566 2.25084 21.4635C2.15257 21.361 2.08615 21.2329 2.05942 21.0944C2.03269 20.9559 2.04677 20.8127 2.1 20.6819L3.4245 17.4215C2.18427 15.808 1.50897 13.8419 1.5 11.8182C1.5 6.92253 5.523 2.21594 12 2.21594C18.477 2.21594 22.5 6.92253 22.5 11.8182C22.5 16.7139 18.435 21.4205 12 21.4205C10.1325 21.4205 8.4645 21.0246 7.038 20.3421L3.033 21.6569H3.0345Z" fill="white"/>
<path d="M15.358 12.6038H12.376V15.6278H11.186V12.6038H8.218V11.5258H11.186V8.48776H12.376V11.5258H15.358V12.6038Z" fill="white"/>
</svg>
