<svg width="15" height="24" viewBox="0 0 15 24" fill="none" xmlns="http://www.w3.org/2000/svg">
<path d="M7.384 0.439999C9.56 0.439999 11.2987 1.03733 12.6 2.232C13.9227 3.42666 14.584 5.05867 14.584 7.128C14.584 9.28267 13.9013 10.904 12.536 11.992C11.1707 13.08 9.35733 13.624 7.096 13.624L6.968 16.152H3.8L3.64 11.128H4.696C6.76533 11.128 8.344 10.8507 9.432 10.296C10.5413 9.74133 11.096 8.68533 11.096 7.128C11.096 5.99733 10.7653 5.112 10.104 4.472C9.464 3.832 8.568 3.512 7.416 3.512C6.264 3.512 5.35733 3.82133 4.696 4.44C4.03467 5.05867 3.704 5.92267 3.704 7.032H0.28C0.28 5.752 0.568 4.61067 1.144 3.608C1.72 2.60533 2.54133 1.82667 3.608 1.272C4.696 0.717332 5.95467 0.439999 7.384 0.439999ZM5.336 23.224C4.67467 23.224 4.12 23 3.672 22.552C3.224 22.104 3 21.5493 3 20.888C3 20.2267 3.224 19.672 3.672 19.224C4.12 18.776 4.67467 18.552 5.336 18.552C5.976 18.552 6.52 18.776 6.968 19.224C7.416 19.672 7.64 20.2267 7.64 20.888C7.64 21.5493 7.416 22.104 6.968 22.552C6.52 23 5.976 23.224 5.336 23.224Z" fill="black"/>
</svg>
